<?xml version="1.0" encoding="UTF-8"?>
<svg width="444px" height="624px" viewBox="0 0 444 624" version="1.1" xmlns="http://www.w3.org/2000/svg" xmlns:xlink="http://www.w3.org/1999/xlink">
    <title>head2</title>
    <defs>
        <linearGradient x1="29.2888498%" y1="16.4845917%" x2="91.1957778%" y2="86.1050497%" id="linearGradient-1">
            <stop stop-color="#D5D5D5" offset="0%"></stop>
            <stop stop-color="#AAAAAA" offset="100%"></stop>
        </linearGradient>
        <linearGradient x1="28.2560855%" y1="8.44059701%" x2="78.129183%" y2="91.559403%" id="linearGradient-2">
            <stop stop-color="#333333" offset="0%"></stop>
            <stop stop-color="#000000" offset="100%"></stop>
        </linearGradient>
        <linearGradient x1="30.8146957%" y1="17.1199679%" x2="93.8482945%" y2="83.2746954%" id="linearGradient-3">
            <stop stop-color="#443B2E" offset="0%"></stop>
            <stop stop-color="#2A241A" offset="15.8368986%"></stop>
            <stop stop-color="#000000" offset="100%"></stop>
        </linearGradient>
    </defs>
    <g id="head2" stroke="none" stroke-width="1" fill="none" fill-rule="evenodd">
        <path d="M422.714941,534.808164 C420.448546,522.013896 418.371063,509.185296 416.483056,496.329119 C415.586843,490.225488 414.712557,484.116229 413.926544,477.99684 C413.376109,473.709384 412.537807,468.806781 415.455841,465.63143 C419.561891,461.162188 423.291801,457.336795 423.794445,450.934877 C424.26729,444.911165 422.229727,438.344908 420.955687,432.497916 C418.283916,420.236625 414.957695,408.126729 411.282322,396.131645 C407.548476,383.944644 403.454233,371.872456 399.300955,359.823343 C395.418115,348.557656 391.685393,337.190663 386.62803,326.381974 C377.030005,305.869948 360.79247,290.679814 340.724945,280.536925 C335.733927,278.014428 325.554281,269.009533 320.340053,266.993562 C315.546381,265.139679 315.563512,270.552747 310.845743,268.513701 C307.074227,266.883815 303.562466,264.710258 301.450687,261.070029 C299.157866,257.117442 293.408004,251.589175 292.532594,246.988236 C290.677759,237.235934 292.687028,228.935496 285.724229,221.59538 C279.542945,215.077524 271.234702,210.612222 262.638029,208.215231 C243.726473,202.942302 218.505442,206.628681 207.095312,224.195544 C201.645505,232.58473 199.741193,242.724805 192.387636,249.57134 C185.966275,255.549465 187.403298,259.636562 179.086621,262.717362 C178.615463,262.892395 165.848374,260.154841 165.377215,260.329874 C156.279023,258.383691 147.58317,263.831718 139.236133,266.993562 C126.792041,271.705936 114.944487,277.839959 103.813791,285.129984 C81.3696715,299.830477 62.1466334,318.919167 46.2987312,340.520223 C30.3198268,362.299126 17.9218387,386.710273 9.09408435,412.223394 C6.95025738,418.42045 5.02458012,424.692923 3.32604844,431.026741 C2.37529801,434.571293 1.35932755,438.248105 2.51698287,441.877078 C3.46379762,444.845879 5.56995441,447.056581 8.04325492,448.837862 C11.3959012,451.252863 18.1208722,452.822529 17.9898699,457.679544 C17.8897909,461.372677 16.6365545,465.258852 16.0248358,468.908086 C15.296733,473.254074 14.698508,477.625388 14.100283,481.990511 C11.379034,501.858688 9.26107009,521.838863 8.32437569,541.875882 C7.40229957,561.604482 6.63708884,581.736615 8.00614698,601.459588 C8.09666787,602.760232 8.48461453,603.953944 9.11038936,604.963055 C8.5262204,605.186489 8.48124108,606.274956 9.20821938,606.429165 C9.71761022,606.537223 10.2258766,606.644719 10.7352674,606.752778 C11.793406,607.553088 13.1129868,608.043855 14.6316012,608.091693 C15.6610655,608.124336 16.6899675,608.170486 17.7183073,608.22339 C28.5701311,610.490935 39.4202683,612.632975 50.413777,614.254982 C63.7771338,616.226491 77.1798475,617.833865 90.6241671,619.1407 C118.249905,621.825285 145.658055,620.934926 173.320339,619.487952 C200.939892,618.042666 228.54314,617.704982 256.191368,618.423686 C283.863772,619.143514 311.526055,620.346794 339.204644,620.839249 C370.127366,621.388548 401.00286,620.544339 431.836186,618.087128 C436.06368,617.75057 438.679227,614.388367 437.845423,610.19096 C432.849907,585.043663 427.188697,560.064082 422.714941,534.808164 Z" id="skin" fill="#F7EEDE" transform="translate(220.000000, 413.500000) scale(-1, 1) translate(-220.000000, -413.500000) "></path>
        <path d="M437.975728,457.824936 C438.448182,451.799227 431.881895,438.48389 430.608911,432.634961 C427.93935,420.369606 424.615882,408.255695 420.943552,396.256636 C417.212796,384.065595 413.121942,371.989406 408.972102,359.936299 C405.092476,348.666877 401.362844,337.296117 396.309667,326.483845 C386.719586,305.96502 370.495491,290.769851 350.444576,280.6236 C345.457689,278.100267 335.286469,269.092387 330.076557,267.075748 C325.286853,265.22125 321.2649,319.039583 291.926817,319.039583 C276.475707,319.039583 231.818999,334.965757 205.066442,304.952362 C178.313884,274.938968 175.46482,260.326973 175.241985,260.409851 C166.151323,258.463023 157.462669,263.912856 149.12254,267.075748 C136.688748,271.789684 124.851001,277.92574 113.729518,285.218182 C91.3039758,299.923547 72.096849,319.018564 56.2620644,340.626781 C40.296386,362.412903 27.9086599,386.832141 19.0882125,412.353718 C16.94616,418.552829 15.0220766,424.827381 13.3249508,431.163299 C12.3749874,434.709025 11.3598578,438.387056 12.516555,442.017232 C13.462586,444.987017 15.5669995,447.198452 18.0382528,448.980323 C20.2715003,450.590857 27.677747,454.310032 40.256993,460.137847 L108.056331,482.143961 L99.6973074,622 L185.88218,622 L265.895232,621.199527 L408.972102,622 C408.972102,615.140955 408.972102,610.123482 408.972102,606.947582 C408.972102,602.183732 399.378193,499.524549 394.386812,474.368917 C389.395431,449.213285 437.4735,464.228976 437.975728,457.824936 Z" id="shirt-bk" fill="url(#linearGradient-1)" transform="translate(225.000000, 441.000000) scale(-1, 1) translate(-225.000000, -441.000000) "></path>
        <text id="20" transform="translate(172.000000, 432.000000) rotate(4.000000) translate(-172.000000, -432.000000) " font-family="NotoSerif-BoldItalic, Noto Serif" font-size="16" font-style="italic" font-weight="bold" fill="#000000">
            <tspan x="163.054688" y="438">20</tspan>
        </text>
        <path d="M192.229774,407.611083 L195.224546,395.540198 L165.276825,395.540198 L192.229774,407.611083 L192.229774,407.611083 Z M157.339915,396.700926 L157.339915,428.504123 L188.901256,410.83568 L157.339915,396.700926 Z M157.339915,467.956357 L188.863484,457.367978 L157.339915,436.191221 L157.339915,467.956357 L157.339915,467.956357 Z M168.377136,468.791041 L194.996524,468.791041 L192.334585,460.744029 L168.377136,468.791041 L168.377136,468.791041 Z M191.548756,453.993257 L191.548756,414.28275 L159.305424,432.33298 L191.548756,453.993257 L191.548756,453.993257 Z M195.824861,415.221065 L195.824861,452.817588 L216.176102,432.310394 L195.824861,415.221065 L195.824861,415.221065 Z M198.453486,465.615546 L210.0559,444.571162 L196.133003,458.600752 L198.453486,465.615546 L198.453486,465.615546 Z M198.649255,399.502326 L196.086505,409.831878 L211.771819,423.003137 L198.649255,399.502326 Z M153.06381,462.635113 L153.06381,434.320056 L137.45285,434.320056 L153.06381,462.635113 L153.06381,462.635113 Z M137.45285,430.011183 L153.06381,430.011183 L153.06381,401.696125 L137.45285,430.011183 Z M197.687104,391.231324 C198.459429,391.231324 199.17172,391.651037 199.550446,392.329287 L221.204642,431.109145 C221.568901,431.761485 221.571041,432.557587 221.210294,433.211906 L199.829769,471.991765 C199.452682,472.675723 198.737246,473.099914 197.960775,473.099914 L155.199725,473.099914 C154.423254,473.099914 153.707818,472.675723 153.33073,471.991765 L131.950205,433.211906 C131.591461,432.561218 131.591461,431.770021 131.950205,431.119332 L153.33073,392.339474 C153.707818,391.655516 154.423254,391.231324 155.199725,391.231324 L197.687104,391.231324 Z" id="d20" fill="url(#linearGradient-2)" fill-rule="nonzero" transform="translate(176.580250, 432.165619) scale(-1, 1) rotate(-38.000000) translate(-176.580250, -432.165619) "></path>
        <path d="M433.113871,260.020738 C435.981171,259.896552 438.904847,260.359019 441.765382,260.639421 C442.014565,260.663584 442.109277,261.046819 441.828523,261.10526 C436.70913,262.171238 431.645849,263.629582 426.617908,265.11062 L424.465179,265.745663 C418.795412,267.417399 413.291956,269.141957 407.803157,271.371688 C396.863895,275.815416 386.474302,281.813437 376.912314,288.704363 C340.091809,315.239174 313.442721,355.413668 296.625664,397.008154 C292.058618,408.304035 288.188947,419.880879 285.054423,431.652713 C284.292215,434.516861 283.575109,437.392247 282.89521,440.276625 C282.695638,441.122327 281.825751,443.287998 282.302695,444.153367 C282.72439,444.918152 284.363813,445.390733 285.125457,445.788578 L287.696847,447.117539 C292.712579,449.694223 301.06747,453.929591 301.905306,454.342249 L303.212004,454.983573 C324.584632,465.427053 347.421092,474.282979 371.471999,474.895897 L371.660296,472.848792 L371.660296,472.848792 C372.732573,461.530997 374.139726,450.153075 377.211108,439.183112 C377.376291,438.59365 378.128915,438.792572 378.197694,439.316289 C379.908716,452.303012 379.361865,465.390881 378.76484,478.43773 C377.707784,501.545341 376.304013,524.640028 375.056405,547.738648 C374.431756,559.293577 373.624447,570.840639 372.895501,582.389388 C372.165428,593.961175 371.929211,605.811116 370.262163,617.287376 C369.890643,619.845273 366.884657,621.236607 364.608181,620.966882 C362.089287,620.667936 360.151633,618.456748 360.139794,615.92189 C360.109351,609.236069 360.952177,602.471577 361.420664,595.802613 C361.865473,589.466311 362.342981,583.13338 362.832327,576.80045 C364.620584,553.687781 366.677756,530.602086 368.580457,507.499532 C369.254718,499.305495 369.9831,491.118763 370.732905,482.932594 C345.254753,482.113864 321.452105,472.707748 298.74485,461.717557 C298.416176,469.1558 297.622397,476.580557 296.853988,483.987895 C294.708869,504.658985 292.817443,525.322208 291.401834,546.057359 C290.686982,556.530014 290.166628,567.015594 289.713363,577.502298 C289.490676,582.656303 289.309144,587.811433 289.169895,592.968248 C289.12329,594.686999 289.081196,596.405999 289.043946,598.125083 L288.966487,602.063309 C288.903112,604.558543 288.648622,606.869923 286.542194,608.686503 C284.402713,610.531313 281.512863,610.629651 279.395368,608.686503 C276.560766,606.084775 277.061952,602.540132 277.145953,599.046063 C277.215859,596.09875 277.29986,593.151998 277.397391,590.205809 C277.593017,584.312868 277.842764,578.421613 278.146632,572.533167 C279.209962,551.946475 281.334529,531.441879 284.111062,511.019889 L285.194924,503.136537 C287.218987,488.481386 289.441131,473.492894 293.965829,459.37544 C292.204069,458.502204 290.447382,457.622786 288.697461,456.739435 C285.593381,455.172779 282.383877,453.702775 279.366616,451.973722 C276.972877,450.602055 274.908376,448.72072 274.242008,445.944232 C273.498839,442.85077 274.635256,439.467245 275.390223,436.44993 L275.45579,436.184664 C276.196011,433.145756 276.993173,430.120335 277.834307,427.107838 C281.245075,414.892081 285.462588,402.914581 290.398335,391.229285 C300.281105,367.83509 313.037375,345.610269 328.619227,325.515155 C342.645093,307.426686 359.214095,291.022878 378.633483,278.720023 C388.127256,272.705143 398.244551,267.766357 408.944214,264.274535 C413.945357,262.642695 419.3868,261.223265 424.623033,260.638859 C427.447487,260.32418 430.275887,260.143801 433.113871,260.020738 Z" id="Path" fill="#111111" transform="translate(358.000000, 440.500000) scale(-1, 1) translate(-358.000000, -440.500000) "></path>
        <path d="M42.8455818,222.460544 C46.2463067,218.806712 53.0027437,222.587781 51.3699006,227.426153 C47.5291745,238.809332 41.4130461,249.192634 31.8680597,256.672575 C22.8958625,263.704373 12.1968577,268.270818 0.674679421,267.296276 C0.585778934,267.288394 0.508694335,267.265874 0.440612316,267.233783 L1.43355748,268.581396 C9.22909722,279.132485 17.4530329,289.537832 27.3650812,298.161869 C47.5606836,315.733481 75.0579417,325.210925 101.609929,318.46907 C122.500418,313.165102 140.905069,296.636155 146.317871,275.571164 C145.541961,275.919095 144.619759,276.037886 143.607532,275.817756 C139.276727,274.876992 134.989248,270.319554 132.196198,267.051936 C129.174706,263.516896 126.814905,259.699795 125.085284,255.385007 C121.919751,247.488451 120.90471,237.321339 125.227075,229.671937 C125.760477,228.728921 126.990455,229.257573 127.09511,230.178068 L127.259675,231.614902 C128.092981,238.783701 129.130959,245.718327 132.509037,252.253634 C134.162136,255.451441 136.143829,258.572681 138.555958,261.250844 C139.846703,262.683664 141.246042,264.052866 142.756788,265.254296 C144.228974,266.424794 146.010675,267.271132 147.330231,268.614241 L147.572043,268.872096 L147.578795,268.825931 C147.912453,265.987877 149.901461,264.737467 151.847706,264.815723 C153.73117,264.891455 155.943426,265.720968 156.800176,266.118306 L156.88127,266.156555 C170.020528,272.467581 182.121873,280.693604 193.509963,289.819984 C217.060715,308.693802 234.706336,333.367022 243.255975,362.422027 C247.452211,376.681909 249.860098,391.375541 252.401827,406.000646 L253.966599,414.961365 C256.339007,428.462929 258.989052,442.230045 264.34452,454.789669 C265.729792,458.038709 264.661861,461.085633 261.265075,462.363067 C257.023734,463.958593 252.766639,465.503449 248.502791,467.029163 C250.596454,476.016239 251.873132,485.314651 253.441832,494.346204 C256.776163,513.543743 260.861647,532.618549 264.364776,551.790754 C266.155727,561.593609 267.77169,571.429117 269.560953,581.233098 C270.422388,585.954367 271.321521,590.668881 272.195896,595.387898 C272.666844,597.932632 273.093904,600.485248 273.54347,603.033359 L273.621709,603.456226 C273.879227,604.8005 274.202829,606.190926 273.833241,607.536187 C273.411807,609.070346 272.215027,610.15411 271.146533,611.254201 C270.267093,612.160058 268.996041,612.165688 267.918545,611.671379 L267.56414,611.50732 C265.639678,610.606695 264.132092,609.708315 263.449326,607.536187 C263.017202,606.160792 262.861345,604.611432 262.578889,603.194376 C262.037046,600.477929 261.523337,597.758104 261.038322,595.030397 C260.068294,589.573294 259.120773,584.11225 258.195758,578.646703 L257.331763,573.529002 C254.366351,555.890896 251.550248,538.14553 250.126632,520.321067 C249.495101,512.413476 248.825759,504.512731 248.150295,496.610472 L247.643045,490.683364 C247.001611,483.181466 246.217824,475.48984 246.106979,467.886603 L243.55735,468.79232 L243.55735,468.79232 L231.116557,473.192823 L231.116557,473.192823 C228.032047,474.283343 224.104672,476.51843 220.78497,476.111948 C219.160004,475.912648 217.921024,475.400887 216.9645,474.47082 C218.110078,490.647332 219.660773,506.795695 221.727428,522.86186 C223.607842,537.480567 225.692502,552.07957 228.154708,566.612139 C229.373995,573.808331 230.627041,580.997767 231.988119,588.168061 C232.668377,591.753771 233.370578,595.334414 234.09416,598.911679 C234.454826,600.69637 234.884137,602.482751 235.165468,604.28208 C235.48731,606.342639 234.920147,607.610502 233.769505,609.305678 C232.824797,610.697962 230.934817,611.412965 229.40269,610.451934 C227.373734,609.177878 226.315368,608.074409 225.718384,605.75431 C225.175979,603.647023 224.846259,601.446842 224.426514,599.312531 C223.651729,595.372697 222.902827,591.42836 222.179807,587.478393 C220.667936,579.218142 219.274224,570.937623 218.029617,562.632333 C213.643673,533.374088 210.86075,503.87094 209.455222,474.319938 C208.76146,459.740077 208.547086,445.147267 208.670309,430.552206 C208.733327,423.071139 208.977522,415.568679 209.506424,408.10619 C210.042077,400.552497 211.156147,393.149687 212.150932,385.66862 C212.185817,385.405139 212.557174,385.389938 212.572928,385.66862 C213.043876,394.056107 213.782087,402.434024 214.143878,410.843468 C214.489352,418.867824 214.640708,426.904567 214.915287,434.931738 C215.275953,445.483375 215.776159,456.041205 216.438411,466.591716 C217.637442,465.279377 219.444711,464.522713 221.253104,464.818285 C223.872855,464.268239 226.692914,462.892844 229.190567,462.057924 L238.606141,458.910787 L238.606141,458.910787 C243.555873,457.25671 248.505605,455.613893 253.472779,454.020619 C249.031792,439.071235 245.989609,423.899099 243.391903,408.505754 L242.233375,401.582847 C239.940136,387.956117 237.467529,374.322946 233.313749,361.12714 C228.946935,347.253837 222.412186,334.35564 213.743264,322.675199 C205.198126,311.163657 194.801833,301.02751 184.097765,291.546687 C174.9337,283.430563 165.130452,276.102631 155.783522,268.209452 C155.881425,268.732474 155.902244,269.308417 155.816157,269.941222 C153.828837,284.494622 146.241349,298.047581 135.667255,308.127992 C114.423977,328.379457 82.9785249,332.581082 55.7896052,323.084496 C29.4891277,313.898683 6.23602379,292.143461 -1.97939397,265.222768 C-2.1200593,264.762239 -1.5033825,264.579266 -1.25581153,264.917625 C-0.800055868,265.542549 -0.342049563,266.167472 0.116519403,266.792396 C0.0855730309,266.544115 0.21442247,266.273878 0.520510222,266.155649 C10.1060083,262.452273 19.5187693,257.200101 26.7039542,249.770266 C30.2059582,246.148525 33.2623344,242.045423 35.6750261,237.620289 C36.8307324,235.500615 37.8688425,233.305501 38.69708,231.037197 L38.9075694,230.450351 C39.9113084,227.608949 40.7501403,224.71154 42.8455818,222.460544 Z" id="Path" fill="#111111" transform="translate(136.000000, 416.500000) scale(-1, 1) translate(-136.000000, -416.500000) "></path>
        <path d="M217.927511,35.8968037 C165.157979,45.5165315 114.742036,85.7779781 105.417986,140.53314 C90.8712799,173.658821 100.160553,225.83496 142.466261,229.733026 C148.48934,230.072771 154.455206,228.686229 160.488943,229.434905 C197.313974,235.31744 240.829571,260.499055 273.427004,230.802322 C275.060943,231.972867 277.213164,232.538733 279.045105,231.830556 C292.919838,226.468326 293.571618,210.956501 294.754583,198.205383 C296.282509,181.729448 297.71564,165.244512 299.052295,148.752827 C299.529631,120.312137 310.802291,84.7722435 292.950127,60.1969944 C276.045344,36.9289754 244.919745,30.2375778 217.927511,35.8968037 Z" id="face-back" fill="#F7EEDE" transform="translate(201.000000, 139.500000) scale(-1, 1) translate(-201.000000, -139.500000) "></path>
        <path d="M305.938033,22.0185178 C337.463685,41.4563779 339.907264,80.2308564 338.621466,86.9353124 C338.132974,89.4939172 338.829215,91.2262766 336.386758,90.439403 C338.458635,108.054911 336.038638,118.75898 336.386758,136.476292 L336.625909,148.304895 C336.781045,156.19088 336.914554,164.077615 336.948243,171.9666 C337.74555,171.669061 338.531628,172.034094 338.8236,172.799595 C338.896593,172.985205 338.643925,173.086446 338.520398,172.97958 C337.116688,171.752867 338.11613,174.548265 338.599006,175.116907 C339.267172,175.898718 340.378911,176.635533 341.159374,177.304854 L343.278977,179.143166 L345.39858,180.977681 C348.136751,183.344208 350.785279,185.715461 353.339841,188.264733 L354.034206,188.964533 C358.68891,193.700398 364.522731,198.283839 367.419989,204.409529 C370.188106,210.258492 369.33465,216.889829 364.736095,221.552576 C363.062872,223.245563 361.108907,224.539771 358.986497,225.518441 C362.765285,231.750436 363.31554,239.990392 359.373921,246.401809 C355.426687,252.83685 347.835421,256.205951 340.524897,255.688493 C340.300303,256.605294 339.952183,257.499596 339.491766,258.34834 C336.592852,263.684784 330.826718,264.377514 325.358726,264.091926 L325.145845,264.080312 C312.838112,263.371057 300.99641,260.283745 290.215914,254.282357 C286.476429,254.535462 283.141213,251.458274 282.411284,248.083548 C280.446089,248.010991 278.469665,247.847317 276.453937,247.616711 C270.47413,246.925454 264.342723,245.637434 259.070387,242.594556 C258.261849,242.127719 258.638044,240.895944 259.536418,240.872883 C265.959797,240.726645 272.388791,241.171546 278.800941,240.474103 C284.685295,239.837967 290.957073,238.213036 296.442774,236.002591 C306.302436,232.020414 314.758388,225.265337 319.424321,215.905534 C325.465891,203.790267 324.915637,189.240135 325.572573,176.078703 C326.300257,161.510011 327.196217,146.954986 328.15403,132.401327 L328.618824,125.425135 C329.549085,111.827408 330.319016,104.553116 332.675348,90.439403 C325.572573,91.0749764 296.067245,80.4370348 286.891928,63.0360642 C269.47742,100.053868 181.248072,84.9040063 177.335134,141.892728 C177.301952,142.375996 176.537827,142.241449 176.509752,141.779674 L176.436967,140.480884 C176.401719,139.839092 176.369745,139.207518 176.348066,138.580819 L176.330077,137.955547 L174.943211,137.972421 C174.943211,138.146219 174.696158,138.208652 174.634395,138.023042 C173.326137,134.304656 167.093663,135.502684 164.381694,136.386299 C161.939238,137.184422 159.637153,138.410573 157.570891,139.924137 C153.421523,142.961391 150.204218,147.050434 149.137398,152.162582 C147.110441,161.871106 153.281152,171.759054 161.473206,176.444299 C163.296378,177.486494 165.1811,178.39837 167.074544,179.289228 L168.968939,180.177127 C171.809022,181.510611 174.629111,182.878777 177.250911,184.650508 C181.624873,187.603393 185.701248,191.062488 189.232984,194.994044 C203.22517,210.568405 211.456528,234.191488 204.836629,254.749194 C204.331294,256.318442 202.994961,258.112109 201.226286,258.365776 C198.300953,258.787617 195.375621,258.360151 193.736087,255.570378 C193.095995,254.479216 192.792794,253.236192 192.860172,252.010042 C191.725974,255.912913 188.048252,259.771912 184.656888,261.223044 C180.035873,263.202883 174.830915,262.611744 170.754539,260.058201 L170.239541,260.439867 C163.610305,265.32777 156.20485,269.782745 147.711229,268.883672 C141.557362,268.231225 135.515792,265.09273 132.113198,260.143132 C127.587636,262.69105 122.753257,264.720948 117.767277,266.104585 L117.236645,266.250597 C110.376815,268.121564 101.626739,269.836769 95.2236872,266.037091 C89.0754354,262.386762 87.031633,254.416784 88.4746474,247.762949 C88.6487075,246.970451 88.8676863,246.199888 89.1371987,245.451824 C84.510569,245.698741 79.8895542,245.254965 75.4987479,243.893825 C71.0124893,242.504001 66.7339798,239.832342 64.5834954,235.502006 C62.1578837,230.602466 62.8035905,225.034731 64.6115696,220.045761 C67.5032131,212.041473 72.1523022,204.9208 77.9412041,198.717491 C83.5080921,192.746962 90.2231149,187.681619 97.2018982,183.459293 L98.3783953,182.754044 C104.660527,179.000714 112.236485,174.602451 119.659479,174.891925 C119.637019,174.796308 119.620175,174.705752 119.608945,174.610698 C118.485977,166.325745 118.615118,157.87768 118.351221,149.525233 L117.979939,137.99984 C117.858518,134.157574 117.744818,130.314605 117.65498,126.470229 C117.363009,113.398227 117.458461,100.271105 119.159758,87.2896586 C120.67015,75.7705934 123.387734,64.5378174 128.345639,53.9917982 C133.550598,42.9120098 141.388917,33.457152 151.068904,26.0215054 C171.383402,10.413397 198.216731,2.44341877 223.545282,1.09352831 C245.723908,-0.0876258414 286.589288,10.0882984 305.938033,22.0185178 Z M166.110549,145.891553 C172.24999,146.948967 175.25906,150.247127 179.0612,154.779977 C182.820292,159.261506 177.812208,170.978006 175.791703,166.242702 L173.424401,160.673923 C171.802905,156.918494 169.887421,152.958536 166.578104,150.509303 C163.06031,147.910764 158.095322,147.528295 154.989422,150.981765 C154.766776,151.23487 154.393846,150.908646 154.544131,150.633043 C156.737186,146.454007 161.730005,145.137864 166.110549,145.891553 Z" id="hair" fill="url(#linearGradient-3)" transform="translate(216.000000, 135.000000) scale(-1, 1) translate(-216.000000, -135.000000) "></path>
        <path d="M193.421815,188.732904 C201.799535,186.638572 210.591661,186.705406 219.131784,187.536624 C223.606248,187.969082 222.286481,188.732904 227.806803,188.732904 C233.327125,188.732904 239.157671,194.090892 241.364103,197.242219 C243.99054,200.976523 245.776966,205.250557 247.031384,209.631301 C247.209467,210.254153 247.376909,210.881498 247.533151,211.512213 C246.987703,214.817428 245.829607,217.630653 242.769723,219.708698 C239.78376,221.737881 236.220989,222.567976 232.669418,222.862834 C232.321093,222.695467 231.984528,222.523607 231.675964,222.347254 C226.141404,219.177392 222.245989,211.686319 215.260448,212.700069 C209.026439,213.605422 204.9227,221.453133 201.215447,226.055161 C189.315276,227.442396 177.424066,223.864789 167.741527,217.056663 C167.24984,214.726444 167.22128,212.376568 167.564564,210.054211 C172.10455,199.412934 182.013332,191.592182 193.421815,188.732904 Z M252.049056,194.281847 C247.350589,186.217346 240.137685,179.791693 231.575162,176.118607 C211.319672,167.441364 185.111296,173.558118 168.753462,187.789359 C163.165701,192.654232 157.51578,199.80327 155.807196,207.493161 C155.297029,207.594255 154.815422,207.859908 154.418936,208.233956 C142.600527,200.789499 130.429872,193.626982 120.906375,183.307521 C113.990276,175.809709 110.324161,167.947396 107.378519,158.19687 C107.137716,157.394295 105.761081,159.173089 104.342141,161.225607 C102.923201,163.278126 102.325309,165.200542 102.280508,165.571221 C100.695686,177.416079 100.454882,182.599862 102.280508,194.506501 C103.372524,201.611169 106.59817,206.812461 110.910232,212.428799 C115.530298,218.448953 120.760773,224.048443 126.10885,229.418224 C129.502499,232.82678 133.04735,236.758218 137.202609,239.257488 C142.035478,242.161136 147.517957,244.368918 152.675631,246.609276 C157.922906,248.895126 163.248583,251.006869 168.67506,252.837796 C179.522416,256.510881 190.733777,259.049466 202.14114,260.161502 C211.274871,261.048883 221.713421,262.015455 230.466346,258.577694 C237.175243,255.943631 242.59052,251.181537 246.885782,245.45231 C251.561849,239.212558 255.258462,232.105081 257.301931,224.610077 C259.425482,216.824708 256.068794,203.237099 255.621347,201.981848 C254.669333,199.309032 253.470356,196.720461 252.049056,194.281847 Z" id="beard" fill="#1B160E" transform="translate(179.500000, 209.500000) scale(-1, 1) translate(-179.500000, -209.500000) "></path>
        <g id="Face" transform="translate(103.000000, 98.000000)">
            <path d="M14.7125054,91.6136837 C21.6116603,83.5967823 33.2313786,83.0384725 42.8567307,85.0429795 C49.0336321,86.3297401 55.0477166,88.4728387 61.3215195,89.2672049 C64.2516603,89.6384725 67.2133504,89.7494584 70.1648997,89.6948105 C73.0640547,89.6412894 75.9677166,89.057064 78.8567307,89.1657964 C79.3006744,89.1821344 79.4685617,89.765233 79.083773,90.0024161 C75.1203927,92.4367823 69.7812378,93.2176274 65.0995476,93.6936837 C65.1141955,94.0401626 65.1350406,94.3781908 65.1829279,94.6649513 C65.3108152,95.4294584 65.4274349,96.188895 65.5215195,96.9584725 C65.7339138,98.6942471 65.9716603,100.424388 66.2088434,102.156782 C66.6763897,105.566241 66.8233618,109.083401 67.6456529,112.43378 L67.7891251,112.990585 C67.9795476,113.69481 68.0229279,114.32974 67.9592659,114.902134 L68.1496885,114.815937 L68.7511228,114.524601 L69.1454632,114.338542 C70.5843236,113.671518 71.9572419,113.185723 73.6488434,113.347768 C74.9367307,113.470585 76.0178575,114.348895 76.0257448,115.724106 C76.0578575,121.895937 67.740111,123.880726 62.9823645,125.062134 L61.587113,125.405868 C55.531071,126.882945 49.3477569,128.177788 43.1192659,128.487487 C33.123773,128.983825 21.8916603,126.226641 15.3530687,118.119036 C9.25222368,110.554529 8.13391382,99.2576274 14.7125054,91.6136837 Z" id="Path" fill="#1A0101" transform="translate(44.776732, 106.303160) scale(-1, 1) translate(-44.776732, -106.303160) "></path>
            <path d="M68.6306324,117.544951 C67.581814,108.252909 56.1629137,107.741979 52.8780014,113.63452 C51.4203149,105.420946 29.8565479,112.92467 31.5427451,114.557346 C37.933731,120.746641 47.6323225,121.303825 55.9697873,120.159036 C60.2159845,119.575937 64.465562,118.626641 68.6306324,117.544951 Z" id="Path" fill="#B12525" transform="translate(50.039740, 115.205818) scale(-1, 1) translate(-50.039740, -115.205818) "></path>
            <path d="M59.6831771,93.1902713 L56.812366,92.7770416 L55.6816751,92.6213136 C48.5646847,91.6682341 40.5610024,91.1759573 34.709692,95.7387542 C32.573354,97.4041063 31.3711004,99.5765006 30.9220864,101.910022 C36.458753,101.089411 42.0157757,100.463367 47.5892489,99.9420611 L49.109692,99.8024161 C52.5970159,99.4880499 56.0826497,99.1567823 59.5665934,98.8091767 L62.0427202,98.5585429 L64.5175793,98.3015711 C65.3885652,98.2103034 71.2584244,97.9100218 72.3620864,98.1117119 C72.4798328,97.1201626 72.6336357,94.9742471 72.8826497,94.0091767 C68.7124619,94.1507103 64.5604152,93.8409861 60.4147089,93.2899713 L59.6831771,93.1902713 Z" id="Path" fill="#FFFFFF" transform="translate(51.902368, 96.947642) scale(-1, 1) translate(-51.902368, -96.947642) "></path>
            <path d="M41.6632419,53.6573201 C45.9175397,56.2432613 52.399783,62.2731717 47.8231377,68.6840349 C42.4359886,74.3367048 34.6797101,67.8555327 30.8575504,64.9243509 C27.3134649,62.6526686 23.3314862,68.4952654 26.6196907,71.1478376 C54.2386965,91.5958579 65.4470739,54.3335077 43.8150063,50.6168872 C41.4332379,50.2073316 40.5486431,52.8573309 41.6632419,53.6573201 Z" id="Path" fill="#111111" transform="translate(40.284945, 63.907682) scale(-1, 1) translate(-40.284945, -63.907682) "></path>
            <path d="M72.9492671,41.5766027 L72.9485405,41.4496809 C72.9564279,37.8571251 75.0488279,29.6545376 80.2207208,29.6545376 C83.4516939,29.6545376 85.4133079,35.2369629 85.7528942,40.9916416 L85.7646889,41.2262747 C85.9146488,44.8040355 84.9328369,52.6243975 80.2207208,52.6243975 C75.4587378,52.6243975 72.998229,45.2175408 72.9492671,41.5766027 L72.9492671,41.5766027 Z" id="Path" fill="#715F08"></path>
            <path d="M22.4632753,40.4498421 L22.4640018,40.3229203 C22.4561145,36.7303645 20.3637145,28.5277771 15.1918216,28.5277771 C12.0416228,28.5277771 10.0981085,33.8345701 9.68815299,39.4336876 L9.65964823,39.864881 C9.45565097,43.3218489 10.3738152,51.4976369 15.1918216,51.4976369 C19.9538046,51.4976369 22.4143134,44.0907802 22.4632753,40.4498421 L22.4632753,40.4498421 Z" id="Path" fill="#715F08" transform="translate(16.048817, 40.012707) scale(-1, 1) translate(-16.048817, -40.012707) "></path>
            <path d="M88.121997,5.16021894 C92.3428421,4.5185288 97.9321378,5.73768373 99.9000252,10.0295147 C100.776645,11.9416274 99.738335,14.0559936 97.5281942,14.1619091 C92.1867857,14.4176837 87.3963632,13.2289513 82.7079125,16.7021908 C80.6901916,18.1971972 78.993814,20.2671308 77.5702702,22.3318379 L77.031643,23.1175999 L76.5855331,23.7649546 C75.6189088,25.1860829 74.7035803,26.730084 74.846504,28.444726 C74.8887576,28.9523316 74.3698843,29.4340218 73.8769266,29.4137401 C70.8042505,29.2875429 70.4735463,25.4351485 70.8774899,23.1213457 C71.6290392,18.8272612 73.7073491,14.7962753 76.5879125,11.5495147 C79.6132646,8.13993725 83.6070674,5.84697951 88.121997,5.16021894 Z" id="Path" fill="#1B160E" transform="translate(85.474661, 17.207179) scale(-1, 1) rotate(-9.000000) translate(-85.474661, -17.207179) "></path>
            <path d="M4.85336508,6.37176824 C7.76378762,4.50078232 11.4866045,3.78190908 14.896182,4.05740204 C21.6189989,4.59881049 32.8973087,10.3137401 31.4128017,18.5250077 C30.9547735,21.057402 27.43252,22.3937401 25.3570271,20.9886696 C23.1254778,19.4782471 22.5823792,17.1306415 20.9215341,15.156557 C19.5964637,13.5796556 17.9170271,12.4388105 16.1187172,11.4669795 C14.3462042,10.5084028 12.2955905,9.92753742 10.2839907,9.71576098 L9.94913973,9.68388091 C8.7384355,9.58078232 2.62463269,9.60838796 3.52209748,11.8906415 C3.69787212,12.337402 3.03308339,12.6912049 2.72773128,12.3531767 C0.853365082,10.2799373 2.97618198,7.5785288 4.85336508,6.37176824 Z" id="Path" fill="#1B160E" transform="translate(16.772965, 12.779335) scale(-1, 1) rotate(15.000000) translate(-16.772965, -12.779335) "></path>
        </g>
        <path d="M274.607195,160.996995 C266.181585,165.085196 254.426828,159.055269 248.761661,152.739144 C246.69961,150.43939 245.10858,143.859693 245.901849,139.686651 C248.050357,128.385274 256.123402,121.602525 264.646135,119.286367 C276.460402,116.074855 288.349898,124.210535 286.963782,133.811134 C285.649526,142.91004 283.658212,156.10846 274.607195,160.996995 M217.25882,139.287898 C216.583447,151.603973 206.766107,162.383861 195.032683,165.577839 C176.127835,170.892275 166.784885,157.503811 162.552993,143.080288 C162.132498,141.647042 161.143859,137.272644 163.796511,133.520412 C174.229154,118.760919 199.612087,121.276735 212.289799,125.328738 C216.000705,128.903935 217.517629,134.06396 217.25882,139.287898 M254.861357,112.758706 C242.400349,116.450984 231.637598,126.496149 217.705701,122.080462 C203.270221,105.868492 154.658476,110.517775 144.4678,118.77619 C142.538803,118.013753 140.193241,118.422687 137.707888,119.142138 C124.944842,118.677775 66.6796886,123.110431 78.5972546,139.521494 C80.4061107,140.785624 82.2132826,139.499435 82.2632479,136.895384 C144.390326,114.301114 138.368104,135.464401 145.736021,132.992702 C146.861082,133.319056 148.034986,133.525503 149.061801,133.742695 C154.764582,135.591096 156.700877,135.019834 157.452041,141.469441 C162.613064,191.271631 228.440942,174.082859 223.041883,133.232519 C228.387608,132.936141 233.063574,130.60754 238.71639,132.881277 C242.641193,171.363425 273.378834,172.916579 282.629152,159.576757 C289.604644,150.317784 286.838588,136.345049 296.426872,129.061173 C300.211884,132.252323 300.455535,121.48205 299.578616,119.469058 C298.480502,106.929569 259.427288,111.731 254.861357,112.758706 Z" id="glasses" stroke="#FFFFFF" stroke-width="0.5" fill="#000000" transform="translate(188.500000, 141.500000) scale(-1, 1) translate(-188.500000, -141.500000) "></path>
    </g>
</svg>